<?xml version="1.0" encoding="utf-8" ?><!-- created by svgstack.com | Attribution is required. --><svg xmlns="http://www.w3.org/2000/svg" xmlns:xlink="http://www.w3.org/1999/xlink" width="1024" height="1024"><path fill="#7DB1F4" transform="scale(2 2)" d="M94.4461 143.13C89.8638 160.909 104.84 163.727 118.017 171.162L158.684 193.992C165.053 197.52 172.143 200.758 177.911 205.175C180.842 207.681 184.397 213.491 185.721 217.049C187.989 219.298 191.067 220.689 193.835 222.226L205.862 228.846C209.351 230.743 213.033 232.538 216.178 234.978L216.178 234.978C227.496 241.082 244.876 250.404 255.229 257.999C254.971 262.716 255.224 267.533 255.227 272.262L255.229 300.252L255.229 358.766L255.222 424.279C255.225 431.572 255.245 438.847 255.408 446.138C255.479 449.306 253.742 452.285 258.031 452.276C251.677 453.693 245.318 448.571 240.101 445.807C227.524 439.145 215.076 432.198 202.68 425.206L121.606 380.517C112.461 375.43 102.914 370.814 94.0087 365.348C83.3224 358.79 86.0084 345.391 86.0064 334.284L86.0121 172.766C86.0203 161.866 83.3951 149.729 94.4461 143.13Z"/><path fill="#EB8772" transform="scale(2 2)" d="M185.721 217.049C187.989 219.298 191.067 220.689 193.835 222.226L205.862 228.846C209.351 230.743 213.033 232.538 216.178 234.978L216.178 234.978C227.496 241.082 244.876 250.404 255.229 257.999C254.971 262.716 255.224 267.533 255.227 272.262L255.229 300.252L255.229 358.766C250.959 358.567 245.937 359.572 241.826 358.517C235.513 356.897 240.386 340.512 237.064 335.03C235.656 332.705 217.423 324.434 214.269 323.752C206.26 322.02 199.813 338.716 192.248 336.346C190.044 335.655 175.232 320.455 173.985 317.939C171.54 313.003 183.206 303.743 185.721 296.592C184.645 293.237 177.713 277.02 175.868 275.467C170.676 271.1 154.339 275.516 152.388 269.258C151.7 267.052 151.145 243.815 152.742 241.349C154.977 237.899 169.427 238.795 173.58 237.701C178.71 236.349 182.445 222.823 185.721 217.049Z"/><path fill="#7DB1F4" transform="scale(2 2)" d="M216.178 234.978C227.496 241.082 244.876 250.404 255.229 257.999C254.971 262.716 255.224 267.533 255.227 272.262L255.229 300.252C220.848 301.349 200.673 265.843 216.178 234.978L216.178 234.978Z"/><path fill="#E2E8F3" transform="scale(2 2)" d="M94.4461 143.13C97.113 141.799 99.6081 140.168 102.246 138.783L233.533 68.9935C253.684 58.4817 254.462 54.9836 273.905 65.8667L365.219 115.217C371.725 118.782 378.052 122.658 384.629 126.095L402.67 135.615C407.627 138.27 412.822 140.961 417.361 144.291C422.962 159.458 406.195 164.239 396.007 170.034L344.371 199.407C341.141 201.257 337.745 203.016 334.712 205.175C331.928 208.95 329.572 212.603 327.972 217.049C322.77 219.388 299.774 231.792 296.151 234.978L296.151 234.978C291.093 237.414 286.319 240.562 281.43 243.326L255.229 257.999C244.876 250.404 227.496 241.082 216.178 234.978L216.178 234.978C213.033 232.538 209.351 230.743 205.862 228.846L193.835 222.226C191.067 220.689 187.989 219.298 185.721 217.049C184.397 213.491 180.842 207.681 177.911 205.175C172.143 200.758 165.053 197.52 158.684 193.992L118.017 171.162C104.84 163.727 89.8638 160.909 94.4461 143.13Z"/><path fill="#FDBE6B" transform="scale(2 2)" d="M177.911 205.175C176.193 202.231 173.215 198.472 174.096 194.856C174.995 191.168 188.265 178.733 191.845 176.748C201.645 171.313 206.59 187.485 215.596 184.863C221.33 183.194 235.848 176.554 237.618 170.921C239.43 165.152 235.715 153.689 244.452 152.379C248.446 151.78 265.613 151.542 268.966 152.57C279.251 155.725 270.513 169.892 278.655 176.096C281.827 178.514 291.486 182.673 295.497 184.217C304.457 187.666 309.696 171.186 319.01 174.438C321.748 175.394 336.792 190.276 338.479 193.219C338.782 199.334 336.736 200.182 334.712 205.175C331.928 208.95 329.572 212.603 327.972 217.049C322.77 219.388 299.774 231.792 296.151 234.978L296.151 234.978C291.093 237.414 286.319 240.562 281.43 243.326L255.229 257.999C244.876 250.404 227.496 241.082 216.178 234.978L216.178 234.978C213.033 232.538 209.351 230.743 205.862 228.846L193.835 222.226C191.067 220.689 187.989 219.298 185.721 217.049C184.397 213.491 180.842 207.681 177.911 205.175Z"/><path fill="#E2E8F3" transform="scale(2 2)" d="M216.178 234.978C227.72 212.928 255.652 204.638 277.498 216.306C282.954 219.22 294.316 228.936 296.151 234.978C291.093 237.414 286.319 240.562 281.43 243.326L255.229 257.999C244.876 250.404 227.496 241.082 216.178 234.978Z"/><path fill="#648CF1" transform="scale(2 2)" d="M417.361 144.291C426.913 151.564 426.474 160.789 426.476 171.577L426.474 339.362C426.474 350.143 427.614 359.367 416.971 366.101C408.302 371.585 399.062 376.383 390.103 381.379L272.811 445.509C268.511 447.863 263.068 451.981 258.031 452.276C253.742 452.285 255.479 449.306 255.408 446.138C255.245 438.847 255.225 431.572 255.222 424.279L255.229 358.766L255.229 300.252L255.227 272.262C255.224 267.533 254.971 262.716 255.229 257.999L281.43 243.326C286.319 240.562 291.093 237.414 296.151 234.978L296.151 234.978C299.774 231.792 322.77 219.388 327.972 217.049C329.572 212.603 331.928 208.95 334.712 205.175C337.745 203.016 341.141 201.257 344.371 199.407L396.007 170.034C406.195 164.239 422.962 159.458 417.361 144.291Z"/><path fill="#C56766" transform="scale(2 2)" d="M296.151 234.978C299.774 231.792 322.77 219.388 327.972 217.049C331.847 222.859 333.408 236.197 340.553 237.608C345.892 238.663 358.353 236.584 359.357 244.285C359.792 247.617 359.852 264.794 359.309 267.889C357.569 277.815 340.758 270.529 335.786 277.457C333.907 280.075 333.203 283.928 331.968 286.91C329.947 291.793 325.106 296.374 328.601 301.675C331.768 306.478 341.506 314.196 336.88 320.383C333.582 324.793 324.668 334.949 318.792 336.044C312.549 334.168 306.466 326.423 300.147 324.46C296.524 325.203 277.855 332.519 276.166 335.08C272.408 340.781 278.667 356.136 269.358 358.386C265.256 359.377 259.512 358.784 255.229 358.766L255.229 300.252L255.227 272.262C255.224 267.533 254.971 262.716 255.229 257.999L281.43 243.326C286.319 240.562 291.093 237.414 296.151 234.978L296.151 234.978Z"/><path fill="#648CF1" transform="scale(2 2)" d="M296.151 234.978L296.151 234.978C311.501 265.952 289.849 302.575 255.229 300.252L255.227 272.262C255.224 267.533 254.971 262.716 255.229 257.999L281.43 243.326C286.319 240.562 291.093 237.414 296.151 234.978Z"/></svg> 