<?xml version="1.0" encoding="UTF-8"?>
<svg xmlns="http://www.w3.org/2000/svg" xmlns:xlink="http://www.w3.org/1999/xlink" width="3873" height="3873" viewBox="0 0 3873 3873">
<defs>
<clipPath id="clip-0">
<path clip-rule="evenodd" d="M 1936.5 0 C 3006 0 3873 867 3873 1936.5 C 3873 3006 3006 3873 1936.5 3873 C 867 3873 0 3006 0 1936.5 C 0 867 867 0 1936.5 0 "/>
</clipPath>
<radialGradient id="radial-pattern-0" gradientUnits="userSpaceOnUse" cx="0" cy="0" fx="0" fy="0" r="1549.19" gradientTransform="matrix(1, 0, 0, 1, 1936.5, 1936.5)">
<stop offset="0" stop-color="rgb(33.201599%, 33.201599%, 33.201599%)" stop-opacity="1"/>
<stop offset="0.0078125" stop-color="rgb(32.876587%, 32.876587%, 32.876587%)" stop-opacity="1"/>
<stop offset="0.0195312" stop-color="rgb(32.485962%, 32.485962%, 32.485962%)" stop-opacity="1"/>
<stop offset="0.03125" stop-color="rgb(32.095337%, 32.095337%, 32.095337%)" stop-opacity="1"/>
<stop offset="0.0429688" stop-color="rgb(31.704712%, 31.704712%, 31.704712%)" stop-opacity="1"/>
<stop offset="0.0546875" stop-color="rgb(31.314087%, 31.314087%, 31.314087%)" stop-opacity="1"/>
<stop offset="0.0664062" stop-color="rgb(30.923462%, 30.923462%, 30.923462%)" stop-opacity="1"/>
<stop offset="0.078125" stop-color="rgb(30.532837%, 30.532837%, 30.532837%)" stop-opacity="1"/>
<stop offset="0.0898438" stop-color="rgb(30.142212%, 30.142212%, 30.142212%)" stop-opacity="1"/>
<stop offset="0.101562" stop-color="rgb(29.751587%, 29.751587%, 29.751587%)" stop-opacity="1"/>
<stop offset="0.113281" stop-color="rgb(29.360962%, 29.360962%, 29.360962%)" stop-opacity="1"/>
<stop offset="0.125" stop-color="rgb(28.970337%, 28.970337%, 28.970337%)" stop-opacity="1"/>
<stop offset="0.136719" stop-color="rgb(28.579712%, 28.579712%, 28.579712%)" stop-opacity="1"/>
<stop offset="0.148438" stop-color="rgb(28.189087%, 28.189087%, 28.189087%)" stop-opacity="1"/>
<stop offset="0.160156" stop-color="rgb(27.798462%, 27.798462%, 27.798462%)" stop-opacity="1"/>
<stop offset="0.171875" stop-color="rgb(27.407837%, 27.407837%, 27.407837%)" stop-opacity="1"/>
<stop offset="0.183594" stop-color="rgb(27.017212%, 27.017212%, 27.017212%)" stop-opacity="1"/>
<stop offset="0.195312" stop-color="rgb(26.626587%, 26.626587%, 26.626587%)" stop-opacity="1"/>
<stop offset="0.207031" stop-color="rgb(26.235962%, 26.235962%, 26.235962%)" stop-opacity="1"/>
<stop offset="0.21875" stop-color="rgb(25.845337%, 25.845337%, 25.845337%)" stop-opacity="1"/>
<stop offset="0.230469" stop-color="rgb(25.454712%, 25.454712%, 25.454712%)" stop-opacity="1"/>
<stop offset="0.242188" stop-color="rgb(25.064087%, 25.064087%, 25.064087%)" stop-opacity="1"/>
<stop offset="0.253906" stop-color="rgb(24.737549%, 24.737549%, 24.737549%)" stop-opacity="1"/>
<stop offset="0.261719" stop-color="rgb(24.478149%, 24.478149%, 24.478149%)" stop-opacity="1"/>
<stop offset="0.269531" stop-color="rgb(24.217224%, 24.217224%, 24.217224%)" stop-opacity="1"/>
<stop offset="0.277344" stop-color="rgb(23.956299%, 23.956299%, 23.956299%)" stop-opacity="1"/>
<stop offset="0.285156" stop-color="rgb(23.696899%, 23.696899%, 23.696899%)" stop-opacity="1"/>
<stop offset="0.292969" stop-color="rgb(23.435974%, 23.435974%, 23.435974%)" stop-opacity="1"/>
<stop offset="0.300781" stop-color="rgb(23.175049%, 23.175049%, 23.175049%)" stop-opacity="1"/>
<stop offset="0.308594" stop-color="rgb(22.915649%, 22.915649%, 22.915649%)" stop-opacity="1"/>
<stop offset="0.316406" stop-color="rgb(22.654724%, 22.654724%, 22.654724%)" stop-opacity="1"/>
<stop offset="0.324219" stop-color="rgb(22.393799%, 22.393799%, 22.393799%)" stop-opacity="1"/>
<stop offset="0.332031" stop-color="rgb(22.134399%, 22.134399%, 22.134399%)" stop-opacity="1"/>
<stop offset="0.339844" stop-color="rgb(21.873474%, 21.873474%, 21.873474%)" stop-opacity="1"/>
<stop offset="0.347656" stop-color="rgb(21.612549%, 21.612549%, 21.612549%)" stop-opacity="1"/>
<stop offset="0.355469" stop-color="rgb(21.353149%, 21.353149%, 21.353149%)" stop-opacity="1"/>
<stop offset="0.363281" stop-color="rgb(21.092224%, 21.092224%, 21.092224%)" stop-opacity="1"/>
<stop offset="0.371094" stop-color="rgb(20.831299%, 20.831299%, 20.831299%)" stop-opacity="1"/>
<stop offset="0.378906" stop-color="rgb(20.571899%, 20.571899%, 20.571899%)" stop-opacity="1"/>
<stop offset="0.386719" stop-color="rgb(20.310974%, 20.310974%, 20.310974%)" stop-opacity="1"/>
<stop offset="0.394531" stop-color="rgb(20.050049%, 20.050049%, 20.050049%)" stop-opacity="1"/>
<stop offset="0.402344" stop-color="rgb(19.790649%, 19.790649%, 19.790649%)" stop-opacity="1"/>
<stop offset="0.410156" stop-color="rgb(19.529724%, 19.529724%, 19.529724%)" stop-opacity="1"/>
<stop offset="0.417969" stop-color="rgb(19.268799%, 19.268799%, 19.268799%)" stop-opacity="1"/>
<stop offset="0.425781" stop-color="rgb(19.009399%, 19.009399%, 19.009399%)" stop-opacity="1"/>
<stop offset="0.433594" stop-color="rgb(18.748474%, 18.748474%, 18.748474%)" stop-opacity="1"/>
<stop offset="0.441406" stop-color="rgb(18.487549%, 18.487549%, 18.487549%)" stop-opacity="1"/>
<stop offset="0.449219" stop-color="rgb(18.228149%, 18.228149%, 18.228149%)" stop-opacity="1"/>
<stop offset="0.457031" stop-color="rgb(17.967224%, 17.967224%, 17.967224%)" stop-opacity="1"/>
<stop offset="0.464844" stop-color="rgb(17.706299%, 17.706299%, 17.706299%)" stop-opacity="1"/>
<stop offset="0.472656" stop-color="rgb(17.446899%, 17.446899%, 17.446899%)" stop-opacity="1"/>
<stop offset="0.480469" stop-color="rgb(17.185974%, 17.185974%, 17.185974%)" stop-opacity="1"/>
<stop offset="0.488281" stop-color="rgb(16.925049%, 16.925049%, 16.925049%)" stop-opacity="1"/>
<stop offset="0.496094" stop-color="rgb(16.665649%, 16.665649%, 16.665649%)" stop-opacity="1"/>
<stop offset="0.503906" stop-color="rgb(16.340637%, 16.340637%, 16.340637%)" stop-opacity="1"/>
<stop offset="0.515625" stop-color="rgb(15.950012%, 15.950012%, 15.950012%)" stop-opacity="1"/>
<stop offset="0.527344" stop-color="rgb(15.559387%, 15.559387%, 15.559387%)" stop-opacity="1"/>
<stop offset="0.539062" stop-color="rgb(15.168762%, 15.168762%, 15.168762%)" stop-opacity="1"/>
<stop offset="0.550781" stop-color="rgb(14.778137%, 14.778137%, 14.778137%)" stop-opacity="1"/>
<stop offset="0.5625" stop-color="rgb(14.387512%, 14.387512%, 14.387512%)" stop-opacity="1"/>
<stop offset="0.574219" stop-color="rgb(13.996887%, 13.996887%, 13.996887%)" stop-opacity="1"/>
<stop offset="0.585938" stop-color="rgb(13.606262%, 13.606262%, 13.606262%)" stop-opacity="1"/>
<stop offset="0.597656" stop-color="rgb(13.215637%, 13.215637%, 13.215637%)" stop-opacity="1"/>
<stop offset="0.609375" stop-color="rgb(12.825012%, 12.825012%, 12.825012%)" stop-opacity="1"/>
<stop offset="0.621094" stop-color="rgb(12.434387%, 12.434387%, 12.434387%)" stop-opacity="1"/>
<stop offset="0.632812" stop-color="rgb(12.107849%, 12.107849%, 12.107849%)" stop-opacity="1"/>
<stop offset="0.640625" stop-color="rgb(11.846924%, 11.846924%, 11.846924%)" stop-opacity="1"/>
<stop offset="0.648438" stop-color="rgb(11.587524%, 11.587524%, 11.587524%)" stop-opacity="1"/>
<stop offset="0.65625" stop-color="rgb(11.326599%, 11.326599%, 11.326599%)" stop-opacity="1"/>
<stop offset="0.664062" stop-color="rgb(11.065674%, 11.065674%, 11.065674%)" stop-opacity="1"/>
<stop offset="0.671875" stop-color="rgb(10.806274%, 10.806274%, 10.806274%)" stop-opacity="1"/>
<stop offset="0.679688" stop-color="rgb(10.545349%, 10.545349%, 10.545349%)" stop-opacity="1"/>
<stop offset="0.6875" stop-color="rgb(10.284424%, 10.284424%, 10.284424%)" stop-opacity="1"/>
<stop offset="0.695312" stop-color="rgb(10.025024%, 10.025024%, 10.025024%)" stop-opacity="1"/>
<stop offset="0.703125" stop-color="rgb(9.764099%, 9.764099%, 9.764099%)" stop-opacity="1"/>
<stop offset="0.710938" stop-color="rgb(9.503174%, 9.503174%, 9.503174%)" stop-opacity="1"/>
<stop offset="0.71875" stop-color="rgb(9.243774%, 9.243774%, 9.243774%)" stop-opacity="1"/>
<stop offset="0.726562" stop-color="rgb(8.982849%, 8.982849%, 8.982849%)" stop-opacity="1"/>
<stop offset="0.734375" stop-color="rgb(8.721924%, 8.721924%, 8.721924%)" stop-opacity="1"/>
<stop offset="0.742188" stop-color="rgb(8.462524%, 8.462524%, 8.462524%)" stop-opacity="1"/>
<stop offset="0.75" stop-color="rgb(8.201599%, 8.201599%, 8.201599%)" stop-opacity="1"/>
<stop offset="0.757812" stop-color="rgb(7.876587%, 7.876587%, 7.876587%)" stop-opacity="1"/>
<stop offset="0.769531" stop-color="rgb(7.485962%, 7.485962%, 7.485962%)" stop-opacity="1"/>
<stop offset="0.78125" stop-color="rgb(7.095337%, 7.095337%, 7.095337%)" stop-opacity="1"/>
<stop offset="0.792969" stop-color="rgb(6.704712%, 6.704712%, 6.704712%)" stop-opacity="1"/>
<stop offset="0.804688" stop-color="rgb(6.314087%, 6.314087%, 6.314087%)" stop-opacity="1"/>
<stop offset="0.816406" stop-color="rgb(5.987549%, 5.987549%, 5.987549%)" stop-opacity="1"/>
<stop offset="0.824219" stop-color="rgb(5.728149%, 5.728149%, 5.728149%)" stop-opacity="1"/>
<stop offset="0.832031" stop-color="rgb(5.467224%, 5.467224%, 5.467224%)" stop-opacity="1"/>
<stop offset="0.839844" stop-color="rgb(5.206299%, 5.206299%, 5.206299%)" stop-opacity="1"/>
<stop offset="0.847656" stop-color="rgb(4.946899%, 4.946899%, 4.946899%)" stop-opacity="1"/>
<stop offset="0.855469" stop-color="rgb(4.685974%, 4.685974%, 4.685974%)" stop-opacity="1"/>
<stop offset="0.863281" stop-color="rgb(4.425049%, 4.425049%, 4.425049%)" stop-opacity="1"/>
<stop offset="0.871094" stop-color="rgb(4.165649%, 4.165649%, 4.165649%)" stop-opacity="1"/>
<stop offset="0.878906" stop-color="rgb(3.840637%, 3.840637%, 3.840637%)" stop-opacity="1"/>
<stop offset="0.890625" stop-color="rgb(3.450012%, 3.450012%, 3.450012%)" stop-opacity="1"/>
<stop offset="0.902344" stop-color="rgb(3.059387%, 3.059387%, 3.059387%)" stop-opacity="1"/>
<stop offset="0.914062" stop-color="rgb(2.732849%, 2.732849%, 2.732849%)" stop-opacity="1"/>
<stop offset="0.921875" stop-color="rgb(2.471924%, 2.471924%, 2.471924%)" stop-opacity="1"/>
<stop offset="0.929688" stop-color="rgb(2.212524%, 2.212524%, 2.212524%)" stop-opacity="1"/>
<stop offset="0.9375" stop-color="rgb(1.951599%, 1.951599%, 1.951599%)" stop-opacity="1"/>
<stop offset="0.945312" stop-color="rgb(1.626587%, 1.626587%, 1.626587%)" stop-opacity="1"/>
<stop offset="0.957031" stop-color="rgb(1.300049%, 1.300049%, 1.300049%)" stop-opacity="1"/>
<stop offset="0.964844" stop-color="rgb(1.040649%, 1.040649%, 1.040649%)" stop-opacity="1"/>
<stop offset="0.972656" stop-color="rgb(0.715637%, 0.715637%, 0.715637%)" stop-opacity="1"/>
<stop offset="0.984375" stop-color="rgb(0.389099%, 0.389099%, 0.389099%)" stop-opacity="1"/>
<stop offset="0.992188" stop-color="rgb(0.1297%, 0.1297%, 0.1297%)" stop-opacity="1"/>
<stop offset="1" stop-color="rgb(0%, 0%, 0%)" stop-opacity="1"/>
</radialGradient>
</defs>
<g clip-path="url(#clip-0)">
<rect x="-387.3" y="-387.3" width="4647.6" height="4647.6" fill="url(#radial-pattern-0)"/>
</g>
<path fill-rule="evenodd" fill="rgb(100%, 100%, 99.609375%)" fill-opacity="1" d="M 1187.898438 1030 C 1068.699219 1030 971.800781 1126.898438 971.800781 1246.101562 L 971.800781 2175.800781 C 971.800781 2295 1068.699219 2391.898438 1187.898438 2391.898438 L 2685.101562 2391.898438 C 2804.300781 2391.898438 2901.199219 2295 2901.199219 2175.800781 L 2901.199219 1246 C 2901.199219 1126.800781 2804.300781 1029.898438 2685.101562 1029.898438 Z M 2685.101562 2451.898438 L 1187.898438 2451.898438 C 1035.601562 2451.898438 911.699219 2328 911.699219 2175.800781 L 911.699219 1246 C 911.699219 1093.699219 1035.601562 969.800781 1187.898438 969.800781 L 2685.101562 969.800781 C 2837.398438 969.800781 2961.199219 1093.699219 2961.199219 1246 L 2961.199219 2175.699219 C 2961.199219 2328 2837.300781 2451.898438 2685.101562 2451.898438 "/>
<path fill-rule="evenodd" fill="rgb(100%, 100%, 99.609375%)" fill-opacity="1" d="M 2284.898438 1794.800781 C 2197 1794.800781 2125.5 1723.300781 2125.5 1635.398438 L 2125.5 1410.898438 C 2125.5 1394.300781 2138.898438 1380.898438 2155.5 1380.898438 C 2172.101562 1380.898438 2185.5 1394.300781 2185.5 1410.898438 L 2185.5 1635.398438 C 2185.5 1690.199219 2230.101562 1734.800781 2284.898438 1734.800781 C 2339.699219 1734.800781 2384.300781 1690.199219 2384.300781 1635.398438 L 2384.300781 1410.898438 C 2384.300781 1394.300781 2397.699219 1380.898438 2414.300781 1380.898438 C 2430.898438 1380.898438 2444.300781 1394.300781 2444.300781 1410.898438 L 2444.300781 1635.398438 C 2444.300781 1723.300781 2372.800781 1794.800781 2284.898438 1794.800781 "/>
<path fill-rule="evenodd" fill="rgb(100%, 100%, 99.609375%)" fill-opacity="1" d="M 2494.101562 1794.800781 C 2488 1794.800781 2481.898438 1793 2476.601562 1789.101562 C 2463.101562 1779.398438 2460.101562 1760.699219 2469.800781 1747.199219 L 2724.800781 1393.300781 C 2734.5 1379.800781 2753.199219 1376.800781 2766.699219 1386.5 C 2780.199219 1396.199219 2783.199219 1414.898438 2773.5 1428.398438 L 2518.5 1782.300781 C 2512.601562 1790.5 2503.5 1794.800781 2494.101562 1794.800781 "/>
<path fill-rule="evenodd" fill="rgb(100%, 100%, 99.609375%)" fill-opacity="1" d="M 2749.199219 1794.800781 C 2739.898438 1794.800781 2730.699219 1790.5 2724.800781 1782.300781 L 2469.800781 1428.398438 C 2460.101562 1414.898438 2463.199219 1396.199219 2476.601562 1386.5 C 2490.101562 1376.800781 2508.800781 1379.898438 2518.5 1393.300781 L 2773.5 1747.199219 C 2783.199219 1760.699219 2780.101562 1779.398438 2766.699219 1789.101562 C 2761.398438 1793 2755.199219 1794.800781 2749.199219 1794.800781 "/>
<path fill-rule="evenodd" fill="rgb(100%, 100%, 99.609375%)" fill-opacity="1" d="M 1253.300781 1794.800781 C 1165.398438 1794.800781 1093.898438 1723.300781 1093.898438 1635.398438 L 1093.898438 1410.898438 C 1093.898438 1394.300781 1107.300781 1380.898438 1123.898438 1380.898438 C 1140.5 1380.898438 1153.898438 1394.300781 1153.898438 1410.898438 L 1153.898438 1635.398438 C 1153.898438 1690.199219 1198.5 1734.800781 1253.300781 1734.800781 C 1308.101562 1734.800781 1352.699219 1690.199219 1352.699219 1635.398438 L 1352.699219 1410.898438 C 1352.699219 1394.300781 1366.101562 1380.898438 1382.699219 1380.898438 C 1399.300781 1380.898438 1412.699219 1394.300781 1412.699219 1410.898438 L 1412.699219 1635.398438 C 1412.699219 1723.300781 1341.199219 1794.800781 1253.300781 1794.800781 "/>
<path fill-rule="evenodd" fill="rgb(100%, 100%, 99.609375%)" fill-opacity="1" d="M 1580.5 1794.800781 C 1563.898438 1794.800781 1550.5 1781.398438 1550.5 1764.800781 L 1550.5 1410.898438 C 1550.5 1394.300781 1563.898438 1380.898438 1580.5 1380.898438 C 1597.101562 1380.898438 1610.5 1394.300781 1610.5 1410.898438 L 1610.5 1764.800781 C 1610.5 1781.398438 1597.101562 1794.800781 1580.5 1794.800781 "/>
<path fill-rule="evenodd" fill="rgb(100%, 100%, 99.609375%)" fill-opacity="1" d="M 1696.601562 1440.898438 L 1464.5 1440.898438 C 1447.898438 1440.898438 1434.5 1427.5 1434.5 1410.898438 C 1434.5 1394.300781 1447.898438 1380.898438 1464.5 1380.898438 L 1696.601562 1380.898438 C 1713.199219 1380.898438 1726.601562 1394.300781 1726.601562 1410.898438 C 1726.601562 1427.5 1713.101562 1440.898438 1696.601562 1440.898438 "/>
<path fill-rule="evenodd" fill="rgb(100%, 100%, 99.609375%)" fill-opacity="1" d="M 1696.601562 1794.800781 L 1464.5 1794.800781 C 1447.898438 1794.800781 1434.5 1781.398438 1434.5 1764.800781 C 1434.5 1748.199219 1447.898438 1734.800781 1464.5 1734.800781 L 1696.601562 1734.800781 C 1713.199219 1734.800781 1726.601562 1748.199219 1726.601562 1764.800781 C 1726.601562 1781.398438 1713.101562 1794.800781 1696.601562 1794.800781 "/>
<path fill-rule="evenodd" fill="rgb(100%, 100%, 99.609375%)" fill-opacity="1" d="M 1797.601562 1858.398438 C 1792.5 1858.398438 1787.300781 1857.101562 1782.601562 1854.398438 C 1768.300781 1846.101562 1763.300781 1827.800781 1771.601562 1813.398438 L 2049.398438 1332.300781 C 2057.699219 1318 2076 1313 2090.398438 1321.300781 C 2104.699219 1329.601562 2109.699219 1347.898438 2101.398438 1362.300781 L 1823.601562 1843.398438 C 1818 1853 1807.898438 1858.398438 1797.601562 1858.398438 "/>
<path fill-rule="evenodd" fill="rgb(100%, 100%, 99.609375%)" fill-opacity="1" d="M 1608.300781 2698.101562 C 1591.699219 2698.101562 1578.300781 2684.699219 1578.300781 2668.101562 L 1578.300781 2422 C 1578.300781 2405.398438 1591.699219 2392 1608.300781 2392 C 1624.898438 2392 1638.300781 2405.398438 1638.300781 2422 L 1638.300781 2668 C 1638.398438 2684.601562 1624.898438 2698.101562 1608.300781 2698.101562 Z M 2264.601562 2698.101562 C 2248 2698.101562 2234.601562 2684.699219 2234.601562 2668.101562 L 2234.601562 2422.101562 C 2234.601562 2405.5 2248 2392.101562 2264.601562 2392.101562 C 2281.199219 2392.101562 2294.601562 2405.5 2294.601562 2422.101562 L 2294.601562 2668.101562 C 2294.699219 2684.601562 2281.199219 2698.101562 2264.601562 2698.101562 "/>
<path fill-rule="evenodd" fill="rgb(100%, 100%, 99.609375%)" fill-opacity="1" d="M 1564.800781 2698.101562 C 1524.800781 2698.101562 1492.300781 2730.601562 1492.300781 2770.601562 C 1492.300781 2810.601562 1524.800781 2843.101562 1564.800781 2843.101562 L 2308.300781 2843.101562 C 2348.300781 2843.101562 2380.800781 2810.601562 2380.800781 2770.601562 C 2380.800781 2730.601562 2348.300781 2698.101562 2308.300781 2698.101562 Z M 2308.199219 2903.101562 L 1564.800781 2903.101562 C 1491.699219 2903.101562 1432.199219 2843.601562 1432.199219 2770.5 C 1432.199219 2697.398438 1491.699219 2637.898438 1564.800781 2637.898438 L 2308.300781 2637.898438 C 2381.398438 2637.898438 2440.898438 2697.398438 2440.898438 2770.5 C 2440.800781 2843.699219 2381.300781 2903.101562 2308.199219 2903.101562 "/>
<path fill-rule="evenodd" fill="rgb(100%, 100%, 99.609375%)" fill-opacity="1" d="M 2931.199219 2209.800781 L 941.800781 2209.800781 C 925.199219 2209.800781 911.800781 2196.398438 911.800781 2179.800781 C 911.800781 2163.199219 925.199219 2149.800781 941.800781 2149.800781 L 2931.101562 2149.800781 C 2947.699219 2149.800781 2961.101562 2163.199219 2961.101562 2179.800781 C 2961.101562 2196.398438 2947.800781 2209.800781 2931.199219 2209.800781 "/>
</svg>
